<?xml version="1.0" encoding="UTF-8" standalone="yes"?>
<!DOCTYPE svg PUBLIC "-//W3C//DTD SVG 1.0//EN" "http://www.w3.org/TR/2001/REC-SVG-20010904/DTD/svg10.dtd">
<svg width="62.0914" height="139.960006" xmlns="http://www.w3.org/2000/svg" xmlns:svg="http://www.w3.org/2000/svg" xmlns:xlink="http://www.w3.org/1999/xlink" xmlns:slic3r="http://slic3r.org/namespaces/slic3r">

  <g>
    <polygon slic3r:type="contour" points="8.494507,1.636306 8.494505,2.451724 8.494505,6.397161 8.46352,6.348304 8.38982,6.259241 8.368124,6.233011 8.343449,6.203205 8.217407,6.084789 8.213985,6.08157 8.209033,6.076922 8.206139,6.074203 8.056777,5.965707 8.053739,5.963501 7.891959,5.874609 7.88867,5.872802 7.71701,5.804788 7.71352,5.803406 7.534707,5.75754 7.53107,5.756607 7.347904,5.733471 7.34418,5.733001 7.155819,5.733001 6.972654,5.756136 6.96893,5.756606 6.790117,5.802472 6.78648,5.803405 6.61482,5.871419 6.61133,5.872801 6.44955,5.961692 6.44626,5.963501 6.296898,6.071996 6.293859,6.074203 6.159287,6.200632 6.156549,6.203205 6.154155,6.206097 6.03648,6.348303 6.034467,6.351476 5.93554,6.507403 5.93394,6.510801 5.85534,6.677802 5.854179,6.681374 5.79713,6.857001 5.796425,6.86069 5.76183,7.042003 5.761594,7.04575 5.749999,7.230003 5.750235,7.23375 5.76183,7.418003 5.762533,7.421691 5.797129,7.603003 5.79829,7.606576 5.855339,7.782202 5.856937,7.785599 5.93554,7.952602 5.937552,7.955774 6.036479,8.111701 6.038873,8.114594 6.15655,8.256801 6.291123,8.383231 6.293859,8.385802 6.443221,8.494294 6.446259,8.496501 6.608039,8.585396 6.61133,8.587204 6.782987,8.655221 6.786479,8.656604 6.965292,8.702469 6.96893,8.703403 7.152094,8.726535 7.155819,8.727005 7.344179,8.727005 7.527344,8.703872 7.53107,8.703402 7.709883,8.657537 7.71352,8.656604 7.885177,8.588587 7.88867,8.587203 8.050448,8.49831 8.053738,8.496502 8.2031,8.388009 8.206139,8.385802 8.209033,8.383083 8.213985,8.378435 8.217407,8.375216 8.343449,8.2568 8.368124,8.226994 8.38982,8.200764 8.46352,8.111701 8.494505,8.062845 8.494505,10.301921 8.494507,10.763658 8.494507,11.680004 5.250535,11.680004 5.250535,17.580002 21.506484,17.580002 21.506484,11.680004 18.262502,11.680004 18.262502,10.765834 18.262504,10.0801 18.262504,8.073917 18.2865,8.111702 18.352695,8.191743 18.383658,8.229169 18.4065,8.256801 18.532027,8.374656 18.536539,8.378887 18.541283,8.383346 18.543899,8.385802 18.693261,8.494294 18.6963,8.496502 18.858009,8.585395 18.8613,8.587204 19.033007,8.655221 19.0365,8.656605 19.215264,8.70247 19.218899,8.703402 19.402074,8.726535 19.405799,8.727005 19.594199,8.727005 19.777374,8.703872 19.781099,8.703403 19.959863,8.657538 19.9635,8.656604 20.135207,8.588587 20.1387,8.587203 20.30041,8.498309 20.3037,8.496501 20.453061,8.388009 20.456099,8.385803 20.590762,8.259372 20.5935,8.2568 20.595892,8.253908 20.7135,8.111701 20.715513,8.10853 20.8145,7.952601 20.816097,7.949206 20.8947,7.782202 20.895859,7.778631 20.952899,7.603004 20.953603,7.599317 20.988199,7.418003 20.988436,7.414254 21,7.230002 20.999764,7.226256 20.9882,7.042003 20.987496,7.038316 20.952899,6.857001 20.95174,6.85343 20.894699,6.677802 20.893102,6.674406 20.8145,6.507404 20.812485,6.504232 20.7135,6.348304 20.711108,6.345412 20.5935,6.203205 20.458837,6.076774 20.456099,6.074202 20.306738,5.965707 20.3037,5.963501 20.14199,5.87461 20.138699,5.872801 19.966992,5.804789 19.963499,5.803405 19.784735,5.757539 19.7811,5.756607 19.597926,5.733472 19.594199,5.733001 19.4058,5.733001 19.222625,5.756136 19.2189,5.756606 19.040136,5.802472 19.036499,5.803406 18.864792,5.871418 18.861299,5.872802 18.699589,5.961693 18.696299,5.963501 18.546938,6.071996 18.543899,6.074203 18.541283,6.076659 18.536539,6.081118 18.532027,6.085349 18.4065,6.203204 18.383658,6.230836 18.352695,6.268262 18.286499,6.348304 18.262504,6.386089 18.262504,2.846358 18.262502,1.634132 18.262502,0 23.536,0 24.304551,1.331167 62.0914,66.780008 62.0914,73.179999 61.322847,74.511168 23.535999,139.96 18.262502,139.96 18.262502,138.325872 18.262504,137.113647 18.262504,133.57392 18.2865,133.611696 18.352696,133.691744 18.383658,133.729176 18.406499,133.756807 18.532028,133.874656 18.536539,133.878887 18.541283,133.883343 18.5439,133.8858 18.693261,133.994295 18.696299,133.996503 18.858009,134.085391 18.861299,134.087199 19.033007,134.155215 19.036499,134.156599 19.215264,134.202464 19.2189,134.2034 19.402073,134.226543 19.4058,134.227008 19.594199,134.227008 19.777374,134.203871 19.7811,134.203399 19.959863,134.157536 19.9635,134.156599 20.135207,134.088584 20.1387,134.087199 20.30041,133.998311 20.3037,133.996503 20.453061,133.888008 20.4561,133.885799 20.590761,133.759376 20.5935,133.756807 20.595891,133.753912 20.7135,133.611695 20.715514,133.608527 20.814499,133.452608 20.816097,133.449208 20.8947,133.282199 20.895859,133.278624 20.9529,133.102999 20.953604,133.099311 20.9882,132.917999 20.988436,132.914255 20.999999,132.730008 20.999763,132.726263 20.9882,132.542007 20.987495,132.538319 20.9529,132.356992 20.95174,132.353416 20.894699,132.177791 20.893101,132.174391 20.8145,132.0074 20.812486,132.004232 20.713499,131.848295 20.711108,131.8454 20.5935,131.7032 20.458838,131.576768 20.456099,131.574199 20.306737,131.465711 20.3037,131.463504 20.14199,131.374608 20.1387,131.3728 19.966991,131.304791 19.9635,131.303408 19.784735,131.257543 19.7811,131.256608 19.597925,131.233471 19.5942,131.233 19.4058,131.233 19.222625,131.256136 19.2189,131.256607 19.040136,131.302471 19.036499,131.303408 18.864791,131.371416 18.861299,131.3728 18.699589,131.461696 18.696299,131.463504 18.546937,131.571992 18.5439,131.574199 18.541283,131.576656 18.53654,131.581111 18.532027,131.585344 18.4065,131.703199 18.383658,131.730831 18.352695,131.768256 18.2865,131.848295 18.262504,131.886088 18.262504,129.879903 18.262502,129.194168 18.262502,128.28 21.506484,128.28 21.506484,122.380008 5.250535,122.380008 5.250535,128.28 8.494507,128.28 8.494507,129.196343 8.494505,129.65808 8.494505,131.89716 8.46352,131.848296 8.389821,131.75924 8.368124,131.733007 8.343449,131.7032 8.217407,131.584783 8.213985,131.581567 8.209033,131.576919 8.206139,131.5742 8.056776,131.465711 8.053738,131.463503 7.89196,131.374608 7.888669,131.372799 7.71701,131.304791 7.713519,131.303407 7.534707,131.257544 7.531069,131.256607 7.347904,131.233471 7.34418,131.233 7.15582,131.233 6.972654,131.256136 6.968929,131.256608 6.790117,131.302471 6.786479,131.303408 6.614821,131.371415 6.611329,131.3728 6.44955,131.461695 6.446259,131.463504 6.296897,131.571992 6.29386,131.574199 6.159287,131.700631 6.156549,131.7032 6.154155,131.706096 6.03648,131.848295 6.034467,131.851464 5.93554,132.007399 5.933941,132.010799 5.85534,132.177792 5.854178,132.181368 5.797129,132.356992 5.796425,132.36068 5.76183,132.542007 5.761593,132.545752 5.75,132.730007 5.750236,132.733752 5.76183,132.918 5.762533,132.921688 5.797129,133.102999 5.798289,133.106575 5.85534,133.2822 5.856938,133.2856 5.93554,133.452607 5.937551,133.455775 6.036479,133.611695 6.038872,133.614591 6.15655,133.756808 6.291122,133.883231 6.293859,133.885799 6.443222,133.994296 6.446259,133.996503 6.608039,134.085392 6.611329,134.087199 6.782988,134.155216 6.786479,134.1566 6.965292,134.202463 6.968929,134.2034 7.152093,134.226543 7.155819,134.227008 7.34418,134.227008 7.527343,134.203872 7.531069,134.2034 7.709882,134.157536 7.713519,134.1566 7.885178,134.088583 7.88867,134.087199 8.050448,133.998312 8.053739,133.996504 8.2031,133.888008 8.206139,133.885799 8.209034,133.883079 8.213985,133.878432 8.217408,133.875215 8.343448,133.756808 8.368124,133.727 8.38982,133.700768 8.46352,133.611696 8.494505,133.56284 8.494505,137.508272 8.494507,138.323695 8.494507,139.96 0,139.96 0,123.525504 0.579412,122.521935 29.067,73.18 29.067,66.780008 28.487587,65.776431 0,16.434502 0,0 8.494507,0" style="fill: white" />
    <polygon slic3r:type="hole" points="44.405799,91.233 44.222624,91.256135 44.218899,91.256608 44.040136,91.302471 44.036499,91.303408 43.864791,91.371416 43.861299,91.3728 43.699588,91.461695 43.6963,91.463503 43.546936,91.571991 43.543899,91.5742 43.40924,91.700631 43.406499,91.7032 43.404107,91.706096 43.286499,91.848304 43.284488,91.851471 43.1855,92.007399 43.1839,92.010799 43.105299,92.1778 43.104139,92.181376 43.047099,92.357 43.046396,92.360687 43.011799,92.542008 43.011563,92.545752 43,92.729999 43.000236,92.733744 43.011799,92.917999 43.012503,92.921687 43.0471,93.103008 43.04826,93.106576 43.105299,93.282199 43.106899,93.285599 43.1855,93.452608 43.187511,93.455775 43.286499,93.611703 43.288891,93.614599 43.4065,93.756808 43.541159,93.883231 43.5439,93.8858 43.693263,93.994295 43.696299,93.996503 43.858012,94.085392 43.8613,94.0872 44.033007,94.155215 44.036499,94.156599 44.215264,94.202464 44.2189,94.2034 44.402075,94.226535 44.4058,94.227008 44.5942,94.227008 44.777375,94.203872 44.781099,94.2034 44.959863,94.157536 44.9635,94.156599 45.135207,94.088584 45.1387,94.087199 45.300411,93.998312 45.3037,93.996503 45.453063,93.888008 45.4561,93.885799 45.59076,93.759375 45.5935,93.756808 45.595892,93.753911 45.7135,93.611703 45.715511,93.608536 45.814499,93.452608 45.8161,93.449207 45.8947,93.282199 45.895859,93.278632 45.9529,93.103007 45.953604,93.099319 45.988199,92.918 45.988436,92.914255 45.999999,92.73 45.999764,92.726256 45.9882,92.542007 45.987496,92.53832 45.952899,92.356999 45.95174,92.353424 45.8947,92.1778 45.893099,92.174399 45.8145,92.0074 45.812488,92.004232 45.7135,91.848304 45.711108,91.845408 45.593499,91.703199 45.45884,91.576768 45.456099,91.574199 45.306736,91.465712 45.303699,91.463503 45.141987,91.374607 45.138699,91.3728 44.966991,91.304791 44.9635,91.303408 44.784735,91.257543 44.7811,91.256607 44.597924,91.233472 44.594199,91.233" style="fill: black" />
    <polygon slic3r:type="hole" points="23.9058,91.233 23.722625,91.256136 23.7189,91.256607 23.540136,91.302471 23.536499,91.303408 23.364791,91.371416 23.3613,91.372799 23.199589,91.461696 23.196299,91.463504 23.046937,91.571992 23.043899,91.5742 22.909238,91.700631 22.906499,91.703199 22.904108,91.706095 22.786499,91.848304 22.784486,91.851471 22.685499,92.0074 22.683902,92.010799 22.605299,92.1778 22.60414,92.181375 22.547099,92.357 22.546396,92.360687 22.511799,92.542008 22.511563,92.545752 22.5,92.729999 22.500236,92.733744 22.511799,92.917999 22.512503,92.921687 22.5471,93.103008 22.54826,93.106576 22.6053,93.2822 22.606898,93.2856 22.685499,93.452607 22.687514,93.455776 22.786499,93.611703 22.788891,93.614599 22.9065,93.756808 23.041161,93.883231 23.0439,93.8858 23.193261,93.994295 23.196299,93.996503 23.358009,94.085391 23.361299,94.087199 23.533007,94.155215 23.536499,94.156599 23.715264,94.202464 23.7189,94.2034 23.902074,94.226536 23.905799,94.227008 24.094199,94.227008 24.277374,94.203871 24.281099,94.2034 24.459863,94.157536 24.4635,94.156599 24.635207,94.088584 24.6387,94.087199 24.80041,93.998311 24.8037,93.996503 24.953061,93.888008 24.9561,93.885799 25.090761,93.759376 25.0935,93.756807 25.095891,93.753912 25.2135,93.611703 25.215513,93.608536 25.314499,93.452608 25.316098,93.449207 25.3947,93.282199 25.395859,93.278632 25.4529,93.103007 25.453603,93.09932 25.4882,92.917999 25.488436,92.914255 25.499999,92.73 25.499764,92.726256 25.4882,92.542007 25.487495,92.538319 25.452899,92.356999 25.45174,92.353424 25.3947,92.1778 25.393101,92.174399 25.3145,92.007399 25.312486,92.004232 25.213499,91.848303 25.211108,91.845408 25.0935,91.7032 24.958838,91.576768 24.956099,91.574199 24.806737,91.465711 24.8037,91.463504 24.64199,91.374608 24.6387,91.3728 24.466991,91.304791 24.4635,91.303408 24.284735,91.257543 24.2811,91.256608 24.097925,91.233471 24.0942,91.233" style="fill: black" />
    <polygon slic3r:type="hole" points="34.4058,68.48296 34.222623,68.506104 34.218899,68.506576 34.040136,68.552487 34.036499,68.553424 33.864792,68.621383 33.8613,68.622767 33.699588,68.711711 33.696299,68.71352 33.546938,68.822023 33.5439,68.824231 33.409239,68.950616 33.406501,68.953184 33.404109,68.95608 33.2865,69.098327 33.284486,69.101495 33.185502,69.257367 33.183904,69.260767 33.1053,69.427815 33.10414,69.431383 33.047099,69.606968 33.046395,69.610656 33.011798,69.791999 33.011561,69.795744 33,69.979999 33.000236,69.983744 33.011797,70.168007 33.012501,70.171695 33.0471,70.353032 33.048259,70.356599 33.1053,70.532192 33.106898,70.535592 33.185502,70.70264 33.187516,70.705808 33.286499,70.861679 33.288891,70.864575 33.406501,71.006823 33.541161,71.133207 33.543899,71.135775 33.693263,71.244279 33.696299,71.246488 33.858011,71.335431 33.8613,71.33724 34.033008,71.4052 34.0365,71.406584 34.215263,71.452495 34.2189,71.453432 34.402075,71.476567 34.4058,71.47704 34.5942,71.47704 34.777375,71.453904 34.781099,71.453432 34.959863,71.40752 34.9635,71.406583 35.135207,71.338624 35.1387,71.337239 35.300411,71.248296 35.3037,71.246487 35.453063,71.137984 35.456099,71.135776 35.59076,71.009391 35.593499,71.006824 35.595892,71.003927 35.713499,70.86168 35.715511,70.858512 35.814499,70.70264 35.8161,70.699239 35.8947,70.532191 35.89586,70.528623 35.952899,70.353032 35.953604,70.349343 35.9882,70.168008 35.988436,70.164263 36,69.979999 35.999763,69.976255 35.9882,69.791999 35.987496,69.788312 35.9529,69.606967 35.951739,69.603399 35.894699,69.427815 35.893099,69.424415 35.814499,69.257367 35.812487,69.254199 35.7135,69.098328 35.711108,69.095432 35.5935,68.953184 35.458839,68.826799 35.456099,68.824231 35.306736,68.715728 35.3037,68.71352 35.141988,68.624576 35.138699,68.622767 34.966991,68.554807 34.963499,68.553423 34.784735,68.507511 34.7811,68.506576 34.597923,68.483431 34.594199,68.48296" style="fill: black" />
    <polygon slic3r:type="hole" points="44.405799,45.733 44.222624,45.756131 44.2189,45.756603 44.040136,45.802471 44.036499,45.803404 43.864792,45.871419 43.8613,45.872803 43.699588,45.961691 43.6963,45.963499 43.546936,46.071995 43.543899,46.074204 43.409239,46.200628 43.4065,46.203199 43.404107,46.206092 43.2865,46.348303 43.284487,46.351476 43.1855,46.507399 43.183899,46.510796 43.105299,46.677804 43.10414,46.681375 43.047099,46.857004 43.046395,46.860692 43.011799,47.042004 43.011563,47.045752 42.999999,47.230004 43.000235,47.233751 43.0118,47.418004 43.012503,47.421691 43.0471,47.603003 43.04826,47.606576 43.105299,47.782203 43.1069,47.7856 43.1855,47.952608 43.187512,47.95578 43.286499,48.111699 43.288891,48.114591 43.406499,48.256803 43.54116,48.383232 43.5439,48.385804 43.693264,48.494296 43.696299,48.496503 43.858012,48.585396 43.8613,48.587204 44.033007,48.655215 44.036499,48.6566 44.215264,48.702472 44.2189,48.703404 44.402076,48.726532 44.405799,48.727004 44.5942,48.727004 44.777376,48.703875 44.7811,48.703403 44.959863,48.657532 44.9635,48.656599 45.135207,48.588588 45.138699,48.587204 45.300411,48.498312 45.303699,48.496504 45.453064,48.388011 45.456099,48.385804 45.59076,48.259375 45.5935,48.256803 45.595892,48.253911 45.7135,48.1117 45.715512,48.108527 45.8145,47.952607 45.8161,47.949211 45.8947,47.782203 45.895859,47.778632 45.952899,47.603004 45.953604,47.599315 45.988199,47.418004 45.988436,47.414255 46,47.230003 45.999764,47.226256 45.9882,47.042003 45.987496,47.038316 45.9529,46.857004 45.951739,46.853431 45.8947,46.677804 45.893099,46.674407 45.814499,46.507399 45.812488,46.504228 45.7135,46.348304 45.711107,46.345411 45.5935,46.2032 45.45884,46.076776 45.456099,46.074203 45.306736,45.965708 45.3037,45.9635 45.141987,45.874611 45.138699,45.872803 44.966991,45.804787 44.963499,45.803403 44.784735,45.757535 44.7811,45.756604 44.597923,45.733471 44.5942,45.733" style="fill: black" />
    <polygon slic3r:type="hole" points="23.9058,45.733 23.722625,45.756132 23.7189,45.756603 23.540136,45.802471 23.536499,45.803404 23.364792,45.871419 23.361299,45.872804 23.199589,45.961692 23.196299,45.9635 23.046938,46.071995 23.0439,46.074203 22.909237,46.200628 22.906499,46.2032 22.904107,46.206092 22.7865,46.348303 22.784485,46.351476 22.6855,46.507399 22.683902,46.510795 22.6053,46.677803 22.60414,46.681375 22.5471,46.857003 22.546395,46.860692 22.5118,47.042003 22.511563,47.045752 22.499999,47.230004 22.500235,47.233751 22.5118,47.418004 22.512503,47.421691 22.5471,47.603003 22.54826,47.606576 22.6053,47.782204 22.606897,47.785599 22.6855,47.952608 22.687514,47.95578 22.786499,48.111699 22.788892,48.114592 22.906499,48.256803 23.041162,48.383232 23.043899,48.385803 23.193261,48.494295 23.1963,48.496504 23.358009,48.585395 23.3613,48.587204 23.533007,48.655215 23.536499,48.6566 23.715264,48.702472 23.7189,48.703404 23.902073,48.726531 23.9058,48.727004 24.094199,48.727004 24.277374,48.703875 24.2811,48.703403 24.459863,48.657532 24.4635,48.656599 24.635207,48.588588 24.638699,48.587204 24.800409,48.498312 24.8037,48.496503 24.953061,48.388012 24.956099,48.385804 25.090762,48.259375 25.0935,48.256803 25.095892,48.253911 25.213499,48.1117 25.215514,48.108527 25.3145,47.952607 25.316097,47.949212 25.394699,47.782204 25.395859,47.778632 25.452899,47.603004 25.453604,47.599315 25.4882,47.418004 25.488436,47.414255 25.5,47.230003 25.499764,47.226256 25.4882,47.042003 25.487496,47.038316 25.4529,46.857004 25.451739,46.853431 25.394699,46.677803 25.393102,46.674408 25.3145,46.5074 25.312485,46.504227 25.2135,46.348304 25.211107,46.345411 25.0935,46.2032 24.958838,46.076776 24.956099,46.074203 24.806738,45.965708 24.8037,45.9635 24.64199,45.874612 24.638699,45.872803 24.466991,45.804787 24.463499,45.803403 24.284735,45.757535 24.2811,45.756604 24.097926,45.733472 24.094199,45.733" style="fill: black" />
  </g>
  
</svg>
