<?xml version="1.0" encoding="UTF-8" standalone="yes"?>
<!DOCTYPE svg PUBLIC "-//W3C//DTD SVG 1.0//EN" "http://www.w3.org/TR/2001/REC-SVG-20010904/DTD/svg10.dtd">
<svg width="62.0914" height="139.960006" xmlns="http://www.w3.org/2000/svg" xmlns:svg="http://www.w3.org/2000/svg" xmlns:xlink="http://www.w3.org/1999/xlink" xmlns:slic3r="http://slic3r.org/namespaces/slic3r">

  <g>
    <polygon slic3r:type="contour" points="8.379911,2.659079 8.379915,5.055119 8.379915,5.460296 8.37524,5.456901 8.365383,5.451484 8.254399,5.390474 8.193079,5.356783 8.14414,5.329902 8.099336,5.31216 7.898939,5.232802 7.852264,5.220816 7.6435,5.167206 7.595691,5.161156 7.381859,5.134102 7.11814,5.134102 7.070331,5.140151 6.856499,5.167206 6.809824,5.179192 6.60106,5.232802 6.556256,5.250545 6.355859,5.329902 6.313631,5.353108 6.124759,5.456901 6.085776,5.485222 5.91141,5.611899 5.876283,5.6449 5.719169,5.792503 5.581778,5.958574 5.55106,5.995703 5.435579,6.177628 5.40976,6.218302 5.317987,6.413304 5.29747,6.4569 5.230869,6.661956 5.21598,6.707802 5.175589,6.919478 5.16656,6.966803 5.153026,7.181909 5.15,7.230003 5.163533,7.445108 5.16656,7.493202 5.206949,7.704878 5.21598,7.752204 5.28258,7.957259 5.29747,8.003105 5.389241,8.198104 5.40976,8.241703 5.525241,8.423628 5.55106,8.464302 5.723408,8.672625 5.723996,8.672037 5.754296,8.700502 5.911409,8.848102 5.950394,8.876426 6.124759,9.003104 6.166986,9.02631 6.355859,9.130103 6.400663,9.147845 6.60106,9.227203 6.647734,9.239189 6.8565,9.292805 6.904307,9.298852 7.11814,9.325905 7.38186,9.325905 7.429667,9.319857 7.6435,9.292804 7.690174,9.280818 7.898939,9.227203 7.943744,9.20946 8.14414,9.130104 8.193079,9.103223 8.254399,9.069532 8.365383,9.008521 8.37524,9.003104 8.379915,8.99971 8.379915,9.200199 8.379911,11.680004 4.949836,11.680004 4.949836,15.457589 5.172304,15.842919 5.498321,16.407592 6.17521,17.580002 21.80717,17.580002 21.80717,11.680004 18.37711,11.680004 18.37711,10.385211 18.377124,9.004382 18.500044,9.071932 18.559496,9.104607 18.605899,9.130103 18.650704,9.147846 18.8511,9.227203 18.897767,9.239189 19.1065,9.292805 19.154299,9.298852 19.3681,9.325905 19.6319,9.325905 19.723336,9.314335 19.8935,9.292804 19.940167,9.280818 20.148899,9.227203 20.193704,9.20946 20.3941,9.130103 20.436328,9.106897 20.6252,9.003104 20.664193,8.974782 20.8386,8.848102 20.873719,8.815103 21.0308,8.667502 21.168183,8.501432 21.1989,8.464301 21.314381,8.282377 21.3402,8.241702 21.43198,8.046701 21.4525,8.003105 21.519107,7.79805 21.534,7.752204 21.574373,7.540528 21.5834,7.493202 21.596966,7.278095 21.6,7.230003 21.586433,7.014896 21.5834,6.966803 21.543026,6.755128 21.533999,6.707801 21.467391,6.502746 21.4525,6.456901 21.360719,6.2619 21.340199,6.218302 21.224718,6.036378 21.198899,5.995703 21.061516,5.829633 21.030799,5.792502 20.995679,5.759502 20.8386,5.6119 20.799605,5.583577 20.6252,5.456901 20.582971,5.433694 20.3941,5.329902 20.349295,5.312159 20.148899,5.232802 20.102231,5.220816 19.893499,5.167205 19.8457,5.161157 19.6319,5.134102 19.368099,5.134102 19.3203,5.14015 19.1065,5.167205 19.059831,5.179192 18.8511,5.232803 18.806296,5.250545 18.605899,5.329902 18.559496,5.355398 18.500044,5.388073 18.377124,5.455624 18.37711,2.657217 18.37711,0 23.536,0 55.060796,54.60263 62.0914,66.780008 62.0914,73.18 30.581005,127.757672 23.536,139.96 18.37711,139.96 18.37711,137.302784 18.377124,134.5044 18.500043,134.571919 18.559495,134.604607 18.605899,134.630095 18.650704,134.64784 18.851099,134.727199 18.897768,134.739184 19.1065,134.7928 19.1543,134.798848 19.368099,134.825904 19.6319,134.825904 19.6797,134.819855 19.893499,134.7928 19.940168,134.780815 20.148899,134.7272 20.193703,134.709456 20.394099,134.630096 20.436328,134.606895 20.6252,134.503119 20.664193,134.4748 20.8386,134.348112 20.873719,134.31512 21.030799,134.167512 21.168184,134.001431 21.198899,133.964296 21.314381,133.782368 21.3402,133.741695 21.43198,133.546703 21.452499,133.503112 21.519108,133.298047 21.534,133.2522 21.574373,133.04052 21.5834,132.993191 21.596966,132.778095 21.6,132.730008 21.586434,132.514896 21.583399,132.466799 21.543026,132.25512 21.534,132.207791 21.467391,132.002751 21.4525,131.956912 21.360719,131.761903 21.3402,131.718304 21.224718,131.536368 21.198899,131.495695 21.061515,131.329639 21.0308,131.292511 20.99568,131.259512 20.838599,131.111903 20.799605,131.083583 20.6252,130.956912 20.582971,130.933703 20.3941,130.829896 20.349295,130.812151 20.1489,130.7328 20.102232,130.720816 19.893499,130.667208 19.8457,130.66116 19.631899,130.634096 19.368099,130.634096 19.3203,130.640143 19.1065,130.667208 19.059831,130.679192 18.8511,130.7328 18.806296,130.750543 18.605899,130.829896 18.559496,130.855391 18.500043,130.888072 18.377124,130.955632 18.37711,129.574791 18.37711,128.28 21.80717,128.28 21.80717,122.380008 6.17521,122.380008 5.498322,123.552415 5.172303,124.117088 4.949836,124.502415 4.949836,128.28 8.379911,128.28 8.379915,130.759815 8.379915,130.960304 8.37524,130.956912 8.365382,130.951495 8.254398,130.890471 8.193079,130.856776 8.14414,130.829896 8.099335,130.812151 7.898939,130.732799 7.852265,130.720816 7.6435,130.667208 7.595692,130.66116 7.381859,130.634096 7.11814,130.634096 7.070332,130.640143 6.856499,130.667208 6.809825,130.679191 6.60106,130.732799 6.556256,130.750543 6.35586,130.829896 6.313631,130.853104 6.12476,130.956911 6.085776,130.985231 5.911409,131.111904 5.876283,131.144903 5.719169,131.292512 5.581777,131.458568 5.551059,131.495696 5.435578,131.677632 5.40976,131.718303 5.317987,131.913312 5.297469,131.956912 5.23087,132.161951 5.215979,132.207792 5.17559,132.419471 5.166559,132.4668 5.153025,132.681912 5.15,132.730007 5.163533,132.945103 5.16656,132.993192 5.206949,133.204871 5.21598,133.2522 5.282579,133.457263 5.29747,133.503112 5.389241,133.698103 5.40976,133.741696 5.525241,133.923624 5.551059,133.964295 5.688451,134.130375 5.71917,134.167512 5.754296,134.200511 5.911409,134.348112 5.950394,134.376432 6.12476,134.50312 6.166986,134.526319 6.355859,134.630095 6.400664,134.64784 6.60106,134.7272 6.647734,134.739183 6.8565,134.7928 6.904307,134.798847 7.11814,134.825904 7.38186,134.825904 7.429667,134.819856 7.6435,134.792799 7.690174,134.780816 7.898939,134.7272 7.943743,134.709456 8.14414,134.630096 8.193078,134.603216 8.254398,134.569536 8.365383,134.508543 8.375239,134.50312 8.379915,134.499728 8.379915,134.904895 8.379911,137.300928 8.379911,139.96 0,139.96 0,123.525504 23.755753,82.379344 29.067,73.18 29.067,66.780007 5.311245,25.633846 0,16.434501 0,0 8.379911,0" style="fill: white" />
    <polygon slic3r:type="hole" points="44.368099,90.634104 44.320299,90.640152 44.1065,90.667207 44.059831,90.679192 43.8511,90.7328 43.806296,90.750543 43.6059,90.829903 43.563672,90.853111 43.3748,90.956903 43.335807,90.985224 43.1614,91.111903 43.12628,91.144903 42.969199,91.292504 42.831815,91.458576 42.8011,91.495703 42.685619,91.677632 42.6598,91.718304 42.568019,91.913304 42.5475,91.956904 42.480892,92.161951 42.466,92.207799 42.425627,92.41948 42.416599,92.466808 42.403031,92.681912 42.399999,92.729999 42.413568,92.945104 42.416599,92.993199 42.456972,93.20488 42.466,93.252208 42.532607,93.457255 42.5475,93.503103 42.63928,93.698096 42.659799,93.741695 42.775279,93.923631 42.8011,93.964304 42.938483,94.130375 42.9692,94.167504 43.004319,94.200503 43.1614,94.348095 43.200391,94.376415 43.3748,94.503103 43.417028,94.526312 43.605899,94.630103 43.650704,94.647848 43.851099,94.727199 43.897768,94.739184 44.1065,94.7928 44.1543,94.798848 44.368099,94.825904 44.6319,94.825904 44.6797,94.819855 44.893499,94.7928 44.940168,94.780815 45.148899,94.7272 45.193703,94.709456 45.394099,94.630104 45.436327,94.606896 45.625199,94.503104 45.664192,94.474783 45.8386,94.348095 45.873719,94.315096 46.0308,94.167503 46.168184,94.001431 46.1989,93.964303 46.314379,93.782368 46.3402,93.741696 46.43198,93.546703 46.4525,93.503104 46.519107,93.298056 46.533999,93.252208 46.574372,93.040527 46.5834,92.993199 46.596968,92.778095 46.6,92.73 46.586432,92.514896 46.5834,92.466808 46.543027,92.255127 46.534,92.207799 46.467392,92.002752 46.4525,91.956904 46.360719,91.761903 46.3402,91.718304 46.224719,91.536375 46.1989,91.495703 46.061516,91.329632 46.030799,91.292504 45.995679,91.259503 45.838599,91.111904 45.799608,91.083584 45.6252,90.956904 45.582971,90.933695 45.3941,90.829904 45.349295,90.812159 45.1489,90.7328 45.102232,90.720816 44.893499,90.667208 44.845699,90.661159 44.6319,90.634104" style="fill: black" />
    <polygon slic3r:type="hole" points="23.868099,90.634104 23.820299,90.640152 23.6065,90.667207 23.559831,90.679192 23.3511,90.7328 23.306296,90.750543 23.1059,90.829903 23.063672,90.853111 22.874799,90.956904 22.835806,90.985223 22.6614,91.111903 22.62628,91.144903 22.469199,91.292504 22.331815,91.458576 22.3011,91.495704 22.185618,91.677631 22.1598,91.718304 22.068019,91.913304 22.0475,91.956904 21.980892,92.161951 21.966,92.2078 21.925626,92.419479 21.9166,92.466808 21.903033,92.681912 21.9,92.729999 21.913565,92.945103 21.9166,92.9932 21.956973,93.204879 21.966,93.252208 22.032607,93.457255 22.0475,93.503103 22.13928,93.698096 22.159799,93.741695 22.275281,93.923631 22.3011,93.964304 22.438483,94.130375 22.4692,94.167504 22.504319,94.200503 22.6614,94.348096 22.700393,94.376415 22.874799,94.503103 22.917028,94.526312 23.105899,94.630103 23.150704,94.647848 23.351099,94.727199 23.397768,94.739184 23.6065,94.7928 23.6543,94.798848 23.868099,94.825904 24.1319,94.825904 24.1797,94.819855 24.393499,94.7928 24.440168,94.780815 24.648899,94.7272 24.693703,94.709456 24.894099,94.630104 24.936327,94.606896 25.1252,94.503103 25.164193,94.474784 25.3386,94.348096 25.373719,94.315096 25.5308,94.167503 25.668184,94.001431 25.6989,93.964303 25.814381,93.782368 25.8402,93.741696 25.93198,93.546703 25.9525,93.503104 26.019107,93.298056 26.034,93.252208 26.074373,93.040528 26.0834,92.993199 26.096965,92.778096 26.1,92.729999 26.086433,92.514895 26.0834,92.466808 26.043026,92.255128 26.033999,92.207799 25.967392,92.002752 25.9525,91.956904 25.860719,91.761903 25.8402,91.718304 25.724718,91.536376 25.698899,91.495703 25.561516,91.329632 25.530799,91.292504 25.495679,91.259503 25.338599,91.111903 25.299605,91.083583 25.1252,90.956904 25.082971,90.933695 24.8941,90.829904 24.849295,90.812159 24.6489,90.7328 24.602232,90.720816 24.393499,90.667208 24.345699,90.661159 24.1319,90.634104" style="fill: black" />
    <polygon slic3r:type="hole" points="34.368099,67.884144 34.3203,67.890183 34.1065,67.917207 34.059832,67.929191 33.851099,67.982784 33.806295,68.00052 33.6059,68.079863 33.563671,68.10308 33.374801,68.20692 33.335808,68.235239 33.1614,68.36192 33.126279,68.394904 32.9692,68.542447 32.831817,68.70852 32.801101,68.745648 32.68562,68.927631 32.659801,68.96832 32.56802,69.163335 32.5475,69.206935 32.480891,69.411928 32.465999,69.45776 32.425626,69.669471 32.4166,69.716808 32.403033,69.931912 32.400002,69.979999 32.413568,70.195104 32.416599,70.243199 32.456973,70.454911 32.466,70.502248 32.532608,70.707232 32.5475,70.753064 32.639281,70.948079 32.659802,70.99168 32.775284,71.173664 32.801102,71.214352 32.938483,71.380431 32.9692,71.41756 33.004319,71.450543 33.1614,71.59808 33.200393,71.626399 33.374802,71.753088 33.41703,71.776304 33.605899,71.880143 33.650704,71.89788 33.851099,71.977223 33.897768,71.989208 34.1065,72.0428 34.154299,72.048839 34.3681,72.075864 34.6319,72.075864 34.679699,72.069824 34.893499,72.0428 34.940167,72.030816 35.1489,71.977223 35.193704,71.959487 35.394099,71.880144 35.436327,71.856928 35.625199,71.753088 35.664192,71.724767 35.8386,71.598079 35.873719,71.565096 36.030799,71.41756 36.168184,71.251479 36.1989,71.214351 36.31438,71.032367 36.340199,70.99168 36.43198,70.796663 36.4525,70.753064 36.519107,70.54808 36.534,70.502247 36.574372,70.290535 36.5834,70.2432 36.596968,70.028095 36.6,69.98 36.586431,69.764895 36.5834,69.716808 36.543027,69.505095 36.534,69.45776 36.467391,69.252767 36.452499,69.206935 36.360719,69.011919 36.3402,68.96832 36.224719,68.786335 36.1989,68.745648 36.061516,68.579576 36.030799,68.542447 35.995679,68.509463 35.8386,68.36192 35.799607,68.333599 35.6252,68.206919 35.582971,68.183703 35.3941,68.079864 35.349295,68.062127 35.1489,67.982784 35.102231,67.970799 34.893499,67.917207 34.8457,67.911168 34.6319,67.884144" style="fill: black" />
    <polygon slic3r:type="hole" points="23.868099,45.1341 23.820299,45.140148 23.6065,45.167203 23.559831,45.179192 23.3511,45.232803 23.306296,45.250547 23.1059,45.329904 23.063672,45.353107 22.874799,45.4569 22.835805,45.485224 22.6614,45.611903 22.62628,45.644903 22.469199,45.792504 22.331816,45.958575 22.3011,45.995703 22.185617,46.177628 22.1598,46.218303 22.068019,46.413304 22.0475,46.4569 21.980892,46.661955 21.965999,46.7078 21.925626,46.919475 21.9166,46.966804 21.903034,47.181911 21.9,47.230004 21.913565,47.445111 21.9166,47.493204 21.956973,47.704879 21.966,47.752203 22.032607,47.957259 22.0475,48.003104 22.139279,48.198103 22.159799,48.241703 22.275282,48.423628 22.301099,48.464303 22.438483,48.630375 22.4692,48.667504 22.504319,48.700503 22.6614,48.848104 22.700393,48.876427 22.8748,49.003104 22.917027,49.026307 23.1059,49.130104 23.150704,49.147848 23.351099,49.227203 23.397768,49.239188 23.6065,49.2928 23.6543,49.298848 23.868099,49.325904 24.1319,49.325904 24.1797,49.319855 24.393499,49.2928 24.440168,49.280815 24.648899,49.227204 24.693703,49.20946 24.8941,49.130104 24.936327,49.1069 25.1252,49.003103 25.164193,48.97478 25.3386,48.848104 25.373719,48.815104 25.5308,48.667503 25.668183,48.501432 25.698899,48.464304 25.814382,48.282379 25.840199,48.241704 25.93198,48.046703 25.9525,48.003104 26.019107,47.798048 26.034,47.752203 26.074374,47.540527 26.0834,47.493204 26.096965,47.278096 26.1,47.230003 26.086434,47.014896 26.0834,46.966803 26.043025,46.755127 26.033999,46.707799 25.967392,46.502744 25.9525,46.4569 25.860719,46.261899 25.8402,46.218304 25.724717,46.036379 25.6989,45.995704 25.561516,45.829632 25.530799,45.792504 25.49568,45.759504 25.338599,45.611903 25.299605,45.583579 25.1252,45.4569 25.082972,45.433696 24.8941,45.329904 24.849295,45.312159 24.6489,45.232804 24.602231,45.220815 24.393499,45.167203 24.345699,45.161155 24.1319,45.1341" style="fill: black" />
    <polygon slic3r:type="hole" points="44.368099,45.1341 44.320299,45.140148 44.1065,45.167203 44.059831,45.179192 43.8511,45.232803 43.806296,45.250547 43.6059,45.329904 43.563672,45.353107 43.3748,45.456899 43.335807,45.485224 43.1614,45.611903 43.12628,45.644903 42.969199,45.792504 42.831816,45.958575 42.801099,45.995704 42.68562,46.177627 42.6598,46.218303 42.568019,46.413304 42.5475,46.4569 42.480892,46.661955 42.466,46.7078 42.425627,46.919476 42.4166,46.966804 42.403032,47.181911 42.4,47.230004 42.413567,47.445111 42.4166,47.493204 42.456972,47.70488 42.465999,47.752203 42.532607,47.957259 42.5475,48.003104 42.639279,48.198103 42.6598,48.241704 42.775279,48.423627 42.8011,48.464304 42.938483,48.630375 42.9692,48.667504 43.004319,48.700503 43.1614,48.848104 43.200391,48.876427 43.3748,49.003104 43.417027,49.026307 43.6059,49.130104 43.650704,49.147848 43.851099,49.227203 43.897768,49.239188 44.1065,49.2928 44.1543,49.298848 44.368099,49.325904 44.6319,49.325904 44.6797,49.319855 44.893499,49.2928 44.940168,49.280815 45.148899,49.227204 45.193703,49.20946 45.3941,49.130104 45.436327,49.1069 45.6252,49.003103 45.664191,48.97478 45.838599,48.848104 45.873719,48.815104 46.0308,48.667503 46.168183,48.501432 46.1989,48.464303 46.314379,48.28238 46.340199,48.241704 46.43198,48.046703 46.4525,48.003104 46.519107,47.798048 46.533999,47.752204 46.574372,47.540527 46.5834,47.493204 46.596967,47.278096 46.6,47.230003 46.586432,47.014896 46.5834,46.966803 46.543027,46.755127 46.534,46.7078 46.467392,46.502744 46.4525,46.4569 46.360719,46.261899 46.340199,46.218303 46.224719,46.036379 46.1989,45.995704 46.061516,45.829632 46.030799,45.792504 45.99568,45.759504 45.8386,45.611904 45.799607,45.583579 45.6252,45.4569 45.582972,45.433696 45.3941,45.329904 45.349295,45.312159 45.1489,45.232804 45.102231,45.220815 44.893499,45.167203 44.845699,45.161155 44.6319,45.1341" style="fill: black" />
  </g>
  
</svg>
